<svg xmlns="http://www.w3.org/2000/svg" width="880" height="230" viewBox="0 0 880 230">
<style>
.jaw-open{animation:jo .36s linear infinite}
.jaw-shut{animation:js .36s linear infinite}
@keyframes jo{0%,49%{opacity:1}50%,100%{opacity:0}}
@keyframes js{0%,49%{opacity:0}50%,100%{opacity:1}}
.pacrun{animation:pr 8s linear infinite}@keyframes pr{from{transform:translate(30px,178px)}to{transform:translate(860px,178px)}}.gA{animation:gAk 8s linear infinite}@keyframes gAk{from{transform:translate(-16px,165px)}to{transform:translate(814px,165px)}}.gB{animation:gBk 8s linear infinite}@keyframes gBk{from{transform:translate(-62px,165px)}to{transform:translate(768px,165px)}}.gC{animation:gCk 8s linear infinite}@keyframes gCk{from{transform:translate(-108px,165px)}to{transform:translate(722px,165px)}}.gD{animation:gDk 8s linear infinite}@keyframes gDk{from{transform:translate(-154px,165px)}to{transform:translate(676px,165px)}}.dt0{animation:dt0k 8s linear infinite}@keyframes dt0k{0%,7.2%{opacity:1}7.3%,100%{opacity:0}}.dt1{animation:dt1k 8s linear infinite}@keyframes dt1k{0%,11.8%{opacity:1}11.9%,100%{opacity:0}}.dt2{animation:dt2k 8s linear infinite}@keyframes dt2k{0%,16.4%{opacity:1}16.5%,100%{opacity:0}}.dt3{animation:dt3k 8s linear infinite}@keyframes dt3k{0%,21.0%{opacity:1}21.1%,100%{opacity:0}}.dt4{animation:dt4k 8s linear infinite}@keyframes dt4k{0%,25.5%{opacity:1}25.6%,100%{opacity:0}}.dt5{animation:dt5k 8s linear infinite}@keyframes dt5k{0%,30.1%{opacity:1}30.2%,100%{opacity:0}}.dt6{animation:dt6k 8s linear infinite}@keyframes dt6k{0%,34.7%{opacity:1}34.8%,100%{opacity:0}}.dt7{animation:dt7k 8s linear infinite}@keyframes dt7k{0%,39.3%{opacity:1}39.4%,100%{opacity:0}}.dt8{animation:dt8k 8s linear infinite}@keyframes dt8k{0%,43.9%{opacity:1}44.0%,100%{opacity:0}}.dt9{animation:dt9k 8s linear infinite}@keyframes dt9k{0%,48.4%{opacity:1}48.5%,100%{opacity:0}}.dt10{animation:dt10k 8s linear infinite}@keyframes dt10k{0%,53.0%{opacity:1}53.1%,100%{opacity:0}}.dt11{animation:dt11k 8s linear infinite}@keyframes dt11k{0%,57.6%{opacity:1}57.7%,100%{opacity:0}}.dt12{animation:dt12k 8s linear infinite}@keyframes dt12k{0%,62.2%{opacity:1}62.3%,100%{opacity:0}}.dt13{animation:dt13k 8s linear infinite}@keyframes dt13k{0%,66.7%{opacity:1}66.8%,100%{opacity:0}}.dt14{animation:dt14k 8s linear infinite}@keyframes dt14k{0%,71.3%{opacity:1}71.4%,100%{opacity:0}}.dt15{animation:dt15k 8s linear infinite}@keyframes dt15k{0%,75.9%{opacity:1}76.0%,100%{opacity:0}}.dt16{animation:dt16k 8s linear infinite}@keyframes dt16k{0%,80.5%{opacity:1}80.6%,100%{opacity:0}}.dt17{animation:dt17k 8s linear infinite}@keyframes dt17k{0%,85.1%{opacity:1}85.2%,100%{opacity:0}}.dt18{animation:dt18k 8s linear infinite}@keyframes dt18k{0%,89.6%{opacity:1}89.7%,100%{opacity:0}}.blink{animation:bl 1.2s steps(1) infinite}@keyframes bl{0%,60%{opacity:1}61%,100%{opacity:0}}.glow{animation:gl 2s ease-in-out infinite}@keyframes gl{0%,100%{opacity:1}50%{opacity:.75}}</style>
<rect width="880" height="230" rx="14" fill="#000000"/>
<rect x="7" y="7" width="866" height="216" rx="10" fill="none" stroke="#2121de" stroke-width="3"/>
<rect x="15" y="15" width="850" height="200" rx="7" fill="none" stroke="#2121de" stroke-width="1.5"/>
<text x="440.0" y="52" text-anchor="middle" font-family="Courier New,Courier,monospace" font-size="15" fill="#ff0000" letter-spacing="6">HIGH SCORE</text>
<text class="glow" x="440.0" y="105" text-anchor="middle" font-family="Courier New,Courier,monospace" font-size="52" font-weight="bold" fill="#ffe600" letter-spacing="14">TICKER</text>
<text x="440.0" y="135" text-anchor="middle" font-family="Courier New,Courier,monospace" font-size="15" fill="#f7f7f7" letter-spacing="2">KERNEL-ALIGNED WALL-CLOCK TICKS FOR ANDROID</text>
<text class="blink" x="440.0" y="215" text-anchor="middle" font-family="Courier New,Courier,monospace" font-size="12" fill="#9aa0b0" letter-spacing="3">ZERO THREADS · ONE FUNCTION · INSERT COIN</text>
<circle class="dt0" cx="90" cy="178" r="4" fill="#ffb8ae"/><circle class="dt1" cx="128" cy="178" r="4" fill="#ffb8ae"/><circle class="dt2" cx="166" cy="178" r="4" fill="#ffb8ae"/><circle class="dt3" cx="204" cy="178" r="4" fill="#ffb8ae"/><circle class="dt4" cx="242" cy="178" r="4" fill="#ffb8ae"/><circle class="dt5" cx="280" cy="178" r="4" fill="#ffb8ae"/><circle class="dt6" cx="318" cy="178" r="4" fill="#ffb8ae"/><circle class="dt7" cx="356" cy="178" r="4" fill="#ffb8ae"/><circle class="dt8" cx="394" cy="178" r="4" fill="#ffb8ae"/><circle class="dt9" cx="432" cy="178" r="4" fill="#ffb8ae"/><circle class="dt10" cx="470" cy="178" r="4" fill="#ffb8ae"/><circle class="dt11" cx="508" cy="178" r="4" fill="#ffb8ae"/><circle class="dt12" cx="546" cy="178" r="4" fill="#ffb8ae"/><circle class="dt13" cx="584" cy="178" r="4" fill="#ffb8ae"/><circle class="dt14" cx="622" cy="178" r="4" fill="#ffb8ae"/><circle class="dt15" cx="660" cy="178" r="4" fill="#ffb8ae"/><circle class="dt16" cx="698" cy="178" r="4" fill="#ffb8ae"/><circle class="dt17" cx="736" cy="178" r="4" fill="#ffb8ae"/><circle class="dt18" cx="774" cy="178" r="4" fill="#ffb8ae"/>
<g class="pacrun" transform="translate(30,178)"><g class=""><path class="jaw-open" fill="#ffe600" d="M0 0 L11.5 -9.6 A15 15 0 1 0 11.5 9.6 Z"/><path class="jaw-shut" fill="#ffe600" d="M0 0 L14.9 -2.1 A15 15 0 1 0 14.9 2.1 Z"/></g></g>
<g class="gA" transform="translate(-16,165)"><g class="" transform="scale(1.0)"><path fill="#ff0000" d="M1 24 L1 12 A12 12 0 0 1 25 12 L25 24 L21 20 L17 24 L13 20 L9 24 L5 20 Z"/><circle cx="9" cy="12" r="3.4" fill="#fff"/><circle cx="17" cy="12" r="3.4" fill="#fff"/><circle cx="11" cy="12" r="1.8" fill="#1a1aff"/><circle cx="19" cy="12" r="1.8" fill="#1a1aff"/></g></g>
<g class="gB" transform="translate(-62,165)"><g class="" transform="scale(1.0)"><path fill="#ffb8ff" d="M1 24 L1 12 A12 12 0 0 1 25 12 L25 24 L21 20 L17 24 L13 20 L9 24 L5 20 Z"/><circle cx="9" cy="12" r="3.4" fill="#fff"/><circle cx="17" cy="12" r="3.4" fill="#fff"/><circle cx="11" cy="12" r="1.8" fill="#1a1aff"/><circle cx="19" cy="12" r="1.8" fill="#1a1aff"/></g></g>
<g class="gC" transform="translate(-108,165)"><g class="" transform="scale(1.0)"><path fill="#00ffff" d="M1 24 L1 12 A12 12 0 0 1 25 12 L25 24 L21 20 L17 24 L13 20 L9 24 L5 20 Z"/><circle cx="9" cy="12" r="3.4" fill="#fff"/><circle cx="17" cy="12" r="3.4" fill="#fff"/><circle cx="11" cy="12" r="1.8" fill="#1a1aff"/><circle cx="19" cy="12" r="1.8" fill="#1a1aff"/></g></g>
<g class="gD" transform="translate(-154,165)"><g class="" transform="scale(1.0)"><path fill="#ffb852" d="M1 24 L1 12 A12 12 0 0 1 25 12 L25 24 L21 20 L17 24 L13 20 L9 24 L5 20 Z"/><circle cx="9" cy="12" r="3.4" fill="#fff"/><circle cx="17" cy="12" r="3.4" fill="#fff"/><circle cx="11" cy="12" r="1.8" fill="#1a1aff"/><circle cx="19" cy="12" r="1.8" fill="#1a1aff"/></g></g>
</svg>