<svg xmlns="http://www.w3.org/2000/svg" width="880" height="300" viewBox="0 0 880 300">
<style>.ph{animation:ph 7s linear infinite}@keyframes ph{from{transform:translateX(110px)}to{transform:translateX(850px)}}.gd0{animation:gd0k 7s linear infinite}@keyframes gd0k{0%,5.4%{opacity:.18}5.5%,100%{opacity:1}}.pd0{animation:pd0k 7s linear infinite}@keyframes pd0k{0%,5.4%{opacity:.18}5.5%,100%{opacity:1}}.gd1{animation:gd1k 7s linear infinite}@keyframes gd1k{0%,24.2%{opacity:.18}24.3%,100%{opacity:1}}.pd1{animation:pd1k 7s linear infinite}@keyframes pd1k{0%,22.7%{opacity:.18}22.8%,100%{opacity:1}}.gd2{animation:gd2k 7s linear infinite}@keyframes gd2k{0%,43.0%{opacity:.18}43.1%,100%{opacity:1}}.pd2{animation:pd2k 7s linear infinite}@keyframes pd2k{0%,40.0%{opacity:.18}40.1%,100%{opacity:1}}.gd3{animation:gd3k 7s linear infinite}@keyframes gd3k{0%,61.8%{opacity:.18}61.9%,100%{opacity:1}}.pd3{animation:pd3k 7s linear infinite}@keyframes pd3k{0%,57.3%{opacity:.18}57.4%,100%{opacity:1}}.gd4{animation:gd4k 7s linear infinite}@keyframes gd4k{0%,80.5%{opacity:.18}80.6%,100%{opacity:1}}.pd4{animation:pd4k 7s linear infinite}@keyframes pd4k{0%,74.6%{opacity:.18}74.7%,100%{opacity:1}}.gd5{animation:gd5k 7s linear infinite}@keyframes gd5k{0%,99.3%{opacity:.18}99.4%,100%{opacity:1}}.pd5{animation:pd5k 7s linear infinite}@keyframes pd5k{0%,91.9%{opacity:.18}92.0%,100%{opacity:1}}
.jaw-open{animation:jo .36s linear infinite}
.jaw-shut{animation:js .36s linear infinite}
@keyframes jo{0%,49%{opacity:1}50%,100%{opacity:0}}
@keyframes js{0%,49%{opacity:0}50%,100%{opacity:1}}
</style>
<rect width="880" height="300" rx="14" fill="#000000"/>
<rect x="7" y="7" width="866" height="286" rx="10" fill="none" stroke="#2121de" stroke-width="3"/>
<text x="440.0" y="36" text-anchor="middle" font-family="Courier New,Courier,monospace" font-size="14" fill="#f7f7f7" letter-spacing="3">WALL-CLOCK SECOND BOUNDARIES</text>
<line x1="150" y1="70" x2="150" y2="240" stroke="#2121de" stroke-width="2" stroke-dasharray="4 5"/><text x="150" y="60" text-anchor="middle" font-family="Courier New,Courier,monospace" font-size="12" fill="#9aa0b0">:00</text><g class="gd0" transform="translate(142,116)"><g class="" transform="scale(0.85)"><path fill="#ffb8ff" d="M1 24 L1 12 A12 12 0 0 1 25 12 L25 24 L21 20 L17 24 L13 20 L9 24 L5 20 Z"/><circle cx="9" cy="12" r="3.4" fill="#fff"/><circle cx="17" cy="12" r="3.4" fill="#fff"/><circle cx="11" cy="12" r="1.8" fill="#1a1aff"/><circle cx="19" cy="12" r="1.8" fill="#1a1aff"/></g></g><g class="pd0" transform="translate(150,212)"><g class=""><path class="jaw-open" fill="#ffe600" d="M0 0 L8.4 -7.1 A11 11 0 1 0 8.4 7.1 Z"/><path class="jaw-shut" fill="#ffe600" d="M0 0 L10.9 -1.5 A11 11 0 1 0 10.9 1.5 Z"/></g></g><line x1="278" y1="70" x2="278" y2="240" stroke="#2121de" stroke-width="2" stroke-dasharray="4 5"/><text x="278" y="60" text-anchor="middle" font-family="Courier New,Courier,monospace" font-size="12" fill="#9aa0b0">:01</text><g class="gd1" transform="translate(281,116)"><g class="" transform="scale(0.85)"><path fill="#ffb8ff" d="M1 24 L1 12 A12 12 0 0 1 25 12 L25 24 L21 20 L17 24 L13 20 L9 24 L5 20 Z"/><circle cx="9" cy="12" r="3.4" fill="#fff"/><circle cx="17" cy="12" r="3.4" fill="#fff"/><circle cx="11" cy="12" r="1.8" fill="#1a1aff"/><circle cx="19" cy="12" r="1.8" fill="#1a1aff"/></g></g><text class="gd1" x="289" y="160" text-anchor="middle" font-family="Courier New,Courier,monospace" font-size="11" fill="#ffb8ff">+11ms</text><g class="pd1" transform="translate(278,212)"><g class=""><path class="jaw-open" fill="#ffe600" d="M0 0 L8.4 -7.1 A11 11 0 1 0 8.4 7.1 Z"/><path class="jaw-shut" fill="#ffe600" d="M0 0 L10.9 -1.5 A11 11 0 1 0 10.9 1.5 Z"/></g></g><line x1="406" y1="70" x2="406" y2="240" stroke="#2121de" stroke-width="2" stroke-dasharray="4 5"/><text x="406" y="60" text-anchor="middle" font-family="Courier New,Courier,monospace" font-size="12" fill="#9aa0b0">:02</text><g class="gd2" transform="translate(420,116)"><g class="" transform="scale(0.85)"><path fill="#ffb8ff" d="M1 24 L1 12 A12 12 0 0 1 25 12 L25 24 L21 20 L17 24 L13 20 L9 24 L5 20 Z"/><circle cx="9" cy="12" r="3.4" fill="#fff"/><circle cx="17" cy="12" r="3.4" fill="#fff"/><circle cx="11" cy="12" r="1.8" fill="#1a1aff"/><circle cx="19" cy="12" r="1.8" fill="#1a1aff"/></g></g><text class="gd2" x="428" y="160" text-anchor="middle" font-family="Courier New,Courier,monospace" font-size="11" fill="#ffb8ff">+22ms</text><g class="pd2" transform="translate(406,212)"><g class=""><path class="jaw-open" fill="#ffe600" d="M0 0 L8.4 -7.1 A11 11 0 1 0 8.4 7.1 Z"/><path class="jaw-shut" fill="#ffe600" d="M0 0 L10.9 -1.5 A11 11 0 1 0 10.9 1.5 Z"/></g></g><line x1="534" y1="70" x2="534" y2="240" stroke="#2121de" stroke-width="2" stroke-dasharray="4 5"/><text x="534" y="60" text-anchor="middle" font-family="Courier New,Courier,monospace" font-size="12" fill="#9aa0b0">:03</text><g class="gd3" transform="translate(559,116)"><g class="" transform="scale(0.85)"><path fill="#ffb8ff" d="M1 24 L1 12 A12 12 0 0 1 25 12 L25 24 L21 20 L17 24 L13 20 L9 24 L5 20 Z"/><circle cx="9" cy="12" r="3.4" fill="#fff"/><circle cx="17" cy="12" r="3.4" fill="#fff"/><circle cx="11" cy="12" r="1.8" fill="#1a1aff"/><circle cx="19" cy="12" r="1.8" fill="#1a1aff"/></g></g><text class="gd3" x="567" y="160" text-anchor="middle" font-family="Courier New,Courier,monospace" font-size="11" fill="#ffb8ff">+33ms</text><g class="pd3" transform="translate(534,212)"><g class=""><path class="jaw-open" fill="#ffe600" d="M0 0 L8.4 -7.1 A11 11 0 1 0 8.4 7.1 Z"/><path class="jaw-shut" fill="#ffe600" d="M0 0 L10.9 -1.5 A11 11 0 1 0 10.9 1.5 Z"/></g></g><line x1="662" y1="70" x2="662" y2="240" stroke="#2121de" stroke-width="2" stroke-dasharray="4 5"/><text x="662" y="60" text-anchor="middle" font-family="Courier New,Courier,monospace" font-size="12" fill="#9aa0b0">:04</text><g class="gd4" transform="translate(698,116)"><g class="" transform="scale(0.85)"><path fill="#ffb8ff" d="M1 24 L1 12 A12 12 0 0 1 25 12 L25 24 L21 20 L17 24 L13 20 L9 24 L5 20 Z"/><circle cx="9" cy="12" r="3.4" fill="#fff"/><circle cx="17" cy="12" r="3.4" fill="#fff"/><circle cx="11" cy="12" r="1.8" fill="#1a1aff"/><circle cx="19" cy="12" r="1.8" fill="#1a1aff"/></g></g><text class="gd4" x="706" y="160" text-anchor="middle" font-family="Courier New,Courier,monospace" font-size="11" fill="#ffb8ff">+44ms</text><g class="pd4" transform="translate(662,212)"><g class=""><path class="jaw-open" fill="#ffe600" d="M0 0 L8.4 -7.1 A11 11 0 1 0 8.4 7.1 Z"/><path class="jaw-shut" fill="#ffe600" d="M0 0 L10.9 -1.5 A11 11 0 1 0 10.9 1.5 Z"/></g></g><line x1="790" y1="70" x2="790" y2="240" stroke="#2121de" stroke-width="2" stroke-dasharray="4 5"/><text x="790" y="60" text-anchor="middle" font-family="Courier New,Courier,monospace" font-size="12" fill="#9aa0b0">:05</text><g class="gd5" transform="translate(837,116)"><g class="" transform="scale(0.85)"><path fill="#ffb8ff" d="M1 24 L1 12 A12 12 0 0 1 25 12 L25 24 L21 20 L17 24 L13 20 L9 24 L5 20 Z"/><circle cx="9" cy="12" r="3.4" fill="#fff"/><circle cx="17" cy="12" r="3.4" fill="#fff"/><circle cx="11" cy="12" r="1.8" fill="#1a1aff"/><circle cx="19" cy="12" r="1.8" fill="#1a1aff"/></g></g><text class="gd5" x="845" y="160" text-anchor="middle" font-family="Courier New,Courier,monospace" font-size="11" fill="#ffb8ff">+55ms</text><g class="pd5" transform="translate(790,212)"><g class=""><path class="jaw-open" fill="#ffe600" d="M0 0 L8.4 -7.1 A11 11 0 1 0 8.4 7.1 Z"/><path class="jaw-shut" fill="#ffe600" d="M0 0 L10.9 -1.5 A11 11 0 1 0 10.9 1.5 Z"/></g></g>
<text x="128" y="137" text-anchor="end" font-family="Courier New,Courier,monospace" font-size="13" fill="#ffb8ff">delay(1000)</text>
<text x="128" y="217" text-anchor="end" font-family="Courier New,Courier,monospace" font-size="13" fill="#ffe600">ticker</text>
<g class="ph" transform="translate(110,0)"><line x1="0" y1="70" x2="0" y2="240" stroke="#f7f7f7" stroke-width="1.5" opacity="0.7"/></g>
<text x="440.0" y="278" text-anchor="middle" font-family="Courier New,Courier,monospace" font-size="13" fill="#9aa0b0">the ghost drifts a little more every lap — pac-man lands on the boundary, every time</text>
</svg>